# xmcd
#
# Track frame offsets: 
#        150
#        11209
#        23353
#        38040
#        47164
#        57356
#        71056
#        82167
#        93210
#        105582
#        118480
#        133679
#        144733
#        156075
#        169389
#        184319
#        198934
#        212218
#        226427
#        239440
#
# Disc length: 3472 seconds
#
# Revision: 1
# Processed by: cddbd v1.5.2PL0 Copyright (c) Steve Scherf et al.
# Submitted via: ExactAudioCopy v1.0b3
#
DISCID=260d8e14
DTITLE=Dinah Washington - 100 Hits Legends [CD 3)
DYEAR=2011
DGENRE=Blues
TTITLE0=A Rockin' Good Way
TTITLE1=Big Deal
TTITLE2=Come Rain or Come Shine
TTITLE3=Someone's Rockin' My Dreamboat
TTITLE4=There Is No Greater Love
TTITLE5=I Concentrate On You
TTITLE6=On the Sunny Side of the Street
TTITLE7=If I Loved You
TTITLE8=I Remember You
TTITLE9=If I Could Be with You One Hour Tonight
TTITLE10=Perdido
TTITLE11=I'm Through with Love
TTITLE12=It's Magic
TTITLE13=Is You Is or Is You Ain't My Baby?
TTITLE14=Send Me to the Electric Chair
TTITLE15=Resolution Blues
TTITLE16=Big Long Slidin' Thing
TTITLE17=Long John Blues
TTITLE18=Short John
TTITLE19=Backwater Blues
EXTD=
EXTT0=
EXTT1=
EXTT2=
EXTT3=
EXTT4=
EXTT5=
EXTT6=
EXTT7=
EXTT8=
EXTT9=
EXTT10=
EXTT11=
EXTT12=
EXTT13=
EXTT14=
EXTT15=
EXTT16=
EXTT17=
EXTT18=
EXTT19=
PLAYORDER=
